<mxfile host="app.diagrams.net" modified="2020-09-26T23:20:49.793Z" agent="5.0 (Macintosh; Intel Mac OS X 10_15_6) AppleWebKit/537.36 (KHTML, like Gecko) Chrome/85.0.4183.121 Safari/537.36" etag="KLmZTvdecfoJtCDN2Blf" version="13.7.5" type="github">
  <diagram id="cgMZ_Amnw5ww_9eV1fKF" name="Page-1">
    <mxGraphModel dx="1288" dy="790" grid="1" gridSize="10" guides="1" tooltips="1" connect="1" arrows="1" fold="1" page="1" pageScale="1" pageWidth="850" pageHeight="1100" math="0" shadow="0">
      <root>
        <mxCell id="0" />
        <mxCell id="1" parent="0" />
      </root>
    </mxGraphModel>
  </diagram>
</mxfile>
